<svg width="163" height="55" viewBox="0 0 163 55" fill="none" xmlns="http://www.w3.org/2000/svg">
<path d="M26.2246 9.45312L19.5742 22.8125C20.7461 21.3086 21.9766 19.9121 23.2656 18.623C24.5547 17.3145 25.873 16.25 27.2207 15.4297C28.2168 14.8438 29.0957 14.4434 29.8574 14.2285C30.6191 13.9941 31.3418 13.877 32.0254 13.877C32.6895 13.877 33.2363 13.9844 33.666 14.1992C34.0957 14.4141 34.4375 14.6973 34.6914 15.0488C34.9453 15.4004 35.1211 15.791 35.2188 16.2207C35.3164 16.6309 35.3652 17.041 35.3652 17.4512C35.3652 18.3691 35.209 19.2773 34.8965 20.1758C34.584 21.0742 34.1934 21.9629 33.7246 22.8418C33.2754 23.7207 32.7773 24.5898 32.2305 25.4492C31.6836 26.2891 31.1758 27.1191 30.707 27.9395C30.2578 28.7402 29.877 29.5312 29.5645 30.3125C29.252 31.0938 29.0957 31.8457 29.0957 32.5684C29.0957 32.9199 29.1348 33.2129 29.2129 33.4473C29.3105 33.6621 29.4277 33.8379 29.5645 33.9746C29.7207 34.0918 29.8867 34.1699 30.0625 34.209C30.2383 34.248 30.4141 34.2676 30.5898 34.2676C30.9609 34.2676 31.3906 34.1016 31.8789 33.7695C32.3867 33.418 32.9238 32.9688 33.4902 32.4219C34.0566 31.8555 34.6328 31.2207 35.2188 30.5176C35.8242 29.7949 36.4004 29.0625 36.9473 28.3203C37.5137 27.5586 38.041 26.8164 38.5293 26.0938C39.0176 25.3516 39.4473 24.6777 39.8184 24.0723L40.9023 24.8926C40.6875 25.3223 40.3652 25.8887 39.9355 26.5918C39.5254 27.2949 39.0371 28.0566 38.4707 28.877C37.9043 29.6777 37.2793 30.4883 36.5957 31.3086C35.9316 32.1094 35.2285 32.8418 34.4863 33.5059C33.7441 34.1699 32.9824 34.707 32.2012 35.1172C31.4395 35.5469 30.6875 35.7617 29.9453 35.7617C29.4375 35.7617 28.9492 35.6836 28.4805 35.5273C28.0117 35.3711 27.6016 35.1367 27.25 34.8242C26.8984 34.4922 26.6152 34.0723 26.4004 33.5645C26.1855 33.0566 26.0781 32.4512 26.0781 31.748C26.0781 30.9082 26.2441 29.9414 26.5762 28.8477C26.9277 27.7539 27.5918 26.5039 28.5684 25.0977C29.3691 23.9453 30.0625 22.9883 30.6484 22.2266C31.2344 21.4453 31.7129 20.7715 32.084 20.2051C32.4746 19.6191 32.7578 19.0918 32.9336 18.623C33.1094 18.1348 33.1973 17.5977 33.1973 17.0117C33.1973 16.5039 33.0508 16.1133 32.7578 15.8398C32.4648 15.5664 32.1328 15.4297 31.7617 15.4297C30.7656 15.4297 29.7402 15.7129 28.6855 16.2793C27.6309 16.8457 26.5859 17.5977 25.5508 18.5352C24.5156 19.4531 23.5 20.5078 22.5039 21.6992C21.5078 22.8906 20.5605 24.1113 19.6621 25.3613C18.7832 26.5918 17.9629 27.8027 17.2012 28.9941C16.459 30.1855 15.8145 31.2598 15.2676 32.2168C14.7207 33.1543 14.3008 33.916 14.0078 34.502C13.6953 35.0684 13.5293 35.3613 13.5098 35.3809C12.6895 37.0605 11.8887 38.6816 11.1074 40.2441C10.3262 41.8262 9.59375 43.3203 8.91016 44.7266C8.20703 46.1328 7.5625 47.4121 6.97656 48.5645C6.39062 49.7363 5.88281 50.752 5.45312 51.6113C5.02344 52.4707 4.69141 53.1445 4.45703 53.6328C4.20312 54.1211 4.06641 54.375 4.04688 54.3945L0.853516 52.5781C2.45508 49.5508 3.90039 46.8164 5.18945 44.375C6.47852 41.9336 7.70898 39.6289 8.88086 37.4609C10.0527 35.3125 11.2051 33.2227 12.3379 31.1914C13.4707 29.1602 14.6719 27.041 15.9414 24.834C17.2109 22.6074 18.5879 20.2246 20.0723 17.6855C21.5762 15.127 23.2852 12.2461 25.1992 9.04297L26.2246 9.45312ZM42.0742 28.3203C42.0352 28.5547 42.0059 28.7891 41.9863 29.0234C41.9668 29.2578 41.957 29.4922 41.957 29.7266C41.957 30.4297 42.0547 31.1035 42.25 31.748C42.4648 32.373 42.7676 32.9297 43.1582 33.418C43.5684 33.8867 44.0664 34.2578 44.6523 34.5312C45.2578 34.8047 45.9414 34.9414 46.7031 34.9414C49.2617 34.9414 51.7324 34.0723 54.1152 32.334C56.498 30.5957 58.8711 27.8418 61.2344 24.0723L62.2305 24.9512C60.9414 27.0996 59.6328 28.916 58.3047 30.4004C56.9766 31.8652 55.6484 33.0566 54.3203 33.9746C53.0117 34.8926 51.7227 35.5566 50.4531 35.9668C49.1836 36.377 47.9727 36.582 46.8203 36.582C45.9805 36.582 45.0918 36.4648 44.1543 36.2305C43.2168 35.9961 42.3477 35.6055 41.5469 35.0586C40.7656 34.5117 40.1211 33.7793 39.6133 32.8613C39.0859 31.9434 38.8223 30.8008 38.8223 29.4336C38.8223 27.9688 39.0762 26.5625 39.584 25.2148C40.0723 23.8477 40.7168 22.5781 41.5176 21.4062C42.3184 20.2344 43.2363 19.1699 44.2715 18.2129C45.3066 17.2363 46.3516 16.4062 47.4062 15.7227C48.4805 15.0391 49.5254 14.5117 50.541 14.1406C51.5566 13.75 52.4551 13.5547 53.2363 13.5547C53.7441 13.5547 54.2617 13.6328 54.7891 13.7891C55.3164 13.9453 55.7852 14.1895 56.1953 14.5215C56.625 14.8535 56.9668 15.293 57.2207 15.8398C57.4941 16.3867 57.6309 17.041 57.6309 17.8027C57.6309 18.8379 57.3867 19.8145 56.8984 20.7324C56.4297 21.6309 55.7949 22.4707 54.9941 23.252C54.1934 24.0137 53.2656 24.707 52.2109 25.332C51.1562 25.9375 50.0527 26.4551 48.9004 26.8848C47.748 27.3145 46.5859 27.6562 45.4141 27.9102C44.2422 28.1641 43.1289 28.3008 42.0742 28.3203ZM42.3086 27.0605C43.6172 26.9238 44.8477 26.6504 46 26.2402C47.1523 25.8301 48.207 25.332 49.1641 24.7461C50.1211 24.1406 50.9707 23.4863 51.7129 22.7832C52.4746 22.0801 53.1094 21.3672 53.6172 20.6445C54.125 19.9219 54.5156 19.2285 54.7891 18.5645C55.0625 17.9004 55.1992 17.3047 55.1992 16.7773C55.1992 16.25 55.0527 15.8301 54.7598 15.5176C54.4863 15.2051 54.1543 15.0488 53.7637 15.0488C52.9043 15.0488 51.9375 15.3613 50.8633 15.9863C49.7891 16.5918 48.7148 17.4414 47.6406 18.5352C46.5664 19.6094 45.5508 20.8789 44.5938 22.3438C43.6562 23.8086 42.8945 25.3809 42.3086 27.0605ZM84.5254 15.5176C84.2715 16.0254 83.9102 16.6895 83.4414 17.5098C82.9922 18.3301 82.5039 19.2383 81.9766 20.2344C81.4492 21.2109 80.9121 22.2363 80.3652 23.3105C79.8379 24.3848 79.3496 25.4395 78.9004 26.4746C78.4707 27.4902 78.1094 28.457 77.8164 29.375C77.543 30.2734 77.4062 31.0352 77.4062 31.6602C77.4062 32.2852 77.5234 32.6953 77.7578 32.8906C78.0117 33.0664 78.334 33.1543 78.7246 33.1543C79.291 33.1543 79.8672 32.9883 80.4531 32.6562C81.0586 32.3242 81.6445 31.8945 82.2109 31.3672C82.7969 30.8398 83.3633 30.2441 83.9102 29.5801C84.457 28.916 84.9648 28.252 85.4336 27.5879C85.9219 26.9043 86.3613 26.2598 86.752 25.6543C87.1426 25.0293 87.4746 24.502 87.748 24.0723L88.8027 24.8926C88.4707 25.5176 88.0801 26.1914 87.6309 26.9141C87.1816 27.6367 86.6836 28.3691 86.1367 29.1113C85.6094 29.834 85.0332 30.5371 84.4082 31.2207C83.7832 31.9043 83.1191 32.5098 82.416 33.0371C81.7324 33.5645 81.0098 33.9844 80.248 34.2969C79.4863 34.6094 78.7051 34.7656 77.9043 34.7656C76.7324 34.7656 75.873 34.4141 75.3262 33.7109C74.7793 33.0078 74.5059 32.0996 74.5059 30.9863C74.5059 30.9082 74.5059 30.7422 74.5059 30.4883C74.5254 30.2148 74.5547 30 74.5938 29.8438C73.6172 31.0742 72.6797 32.0898 71.7812 32.8906C70.9023 33.6914 70.043 34.3262 69.2031 34.7949C68.3828 35.2637 67.582 35.5859 66.8008 35.7617C66.0391 35.957 65.3066 36.0547 64.6035 36.0547C63.8613 36.0547 63.1582 35.9277 62.4941 35.6738C61.8496 35.4395 61.2832 35.0879 60.7949 34.6191C60.2871 34.1504 59.8965 33.5742 59.623 32.8906C59.3301 32.207 59.1836 31.416 59.1836 30.5176C59.1836 29.4043 59.4375 28.1348 59.9453 26.709C60.4336 25.2637 61.3125 23.7109 62.582 22.0508C63.6562 20.625 64.7695 19.4238 65.9219 18.4473C67.0938 17.4707 68.2363 16.6895 69.3496 16.1035C70.4824 15.498 71.5566 15.0684 72.5723 14.8145C73.5879 14.5605 74.4961 14.4336 75.2969 14.4336C77.0938 14.4336 78.4512 14.7363 79.3691 15.3418C80.2871 15.9277 80.8438 16.8359 81.0391 18.0664C81.4297 17.5781 81.8398 17.0898 82.2695 16.6016C82.6992 16.1133 83.1387 15.6152 83.5879 15.1074L84.5254 15.5176ZM75.5312 26.6504C75.7852 26.2402 76.0977 25.7227 76.4688 25.0977C76.8398 24.4531 77.2305 23.7988 77.6406 23.1348C78.0508 22.4512 78.4512 21.7969 78.8418 21.1719C79.2324 20.5469 79.5742 20.0195 79.8672 19.5898C79.8672 19.4141 79.8379 19.1309 79.7793 18.7402C79.7402 18.3496 79.6133 17.959 79.3984 17.5684C79.1836 17.1582 78.8418 16.8066 78.373 16.5137C77.9043 16.2207 77.25 16.0742 76.4102 16.0742C75.8047 16.0742 75.1211 16.1719 74.3594 16.3672C73.6172 16.543 72.8164 16.8555 71.957 17.3047C71.1172 17.7344 70.248 18.3105 69.3496 19.0332C68.4512 19.7559 67.5527 20.6543 66.6543 21.7285C65.3066 23.3496 64.2617 24.9805 63.5195 26.6211C62.7969 28.2422 62.4355 29.707 62.4355 31.0156C62.4355 32.1289 62.6895 32.9883 63.1973 33.5938C63.7051 34.1992 64.4277 34.502 65.3652 34.502C66.4395 34.502 67.4453 34.2676 68.3828 33.7988C69.3203 33.3105 70.1992 32.6855 71.0195 31.9238C71.8398 31.1621 72.6211 30.3223 73.3633 29.4043C74.1055 28.4668 74.8281 27.5488 75.5312 26.6504ZM112.24 19.7949C112.24 20.6348 112.094 21.4941 111.801 22.373C111.508 23.2324 111.137 24.1016 110.688 24.9805C110.238 25.8398 109.76 26.6895 109.252 27.5293C108.744 28.3691 108.266 29.1797 107.816 29.9609C107.367 30.7422 106.996 31.4941 106.703 32.2168C106.41 32.9199 106.264 33.5645 106.264 34.1504C106.264 34.5996 106.361 34.9023 106.557 35.0586C106.752 35.2148 106.967 35.293 107.201 35.293C107.943 35.293 108.773 34.9316 109.691 34.209C110.609 33.4668 111.537 32.5391 112.475 31.4258C113.432 30.3125 114.379 29.1016 115.316 27.793C116.254 26.4844 117.104 25.2441 117.865 24.0723L118.92 24.8926C118.764 25.127 118.48 25.5957 118.07 26.2988C117.66 26.9824 117.152 27.7734 116.547 28.6719C115.941 29.5508 115.258 30.4785 114.496 31.4551C113.754 32.4121 112.953 33.3008 112.094 34.1211C111.234 34.9219 110.346 35.5859 109.428 36.1133C108.529 36.6406 107.621 36.9043 106.703 36.9043C106.176 36.9043 105.697 36.8164 105.268 36.6406C104.838 36.4648 104.467 36.2207 104.154 35.9082C103.861 35.5957 103.627 35.2344 103.451 34.8242C103.275 34.3945 103.188 33.9453 103.188 33.4766C103.188 32.7148 103.354 31.8945 103.686 31.0156C104.037 30.1172 104.467 29.1992 104.975 28.2617C105.482 27.3242 106.039 26.3867 106.645 25.4492C107.25 24.4922 107.807 23.584 108.314 22.7246C108.822 21.8652 109.242 21.0742 109.574 20.3516C109.926 19.6094 110.102 18.9746 110.102 18.4473C110.102 17.8418 109.936 17.334 109.604 16.9238C109.291 16.5137 108.842 16.3086 108.256 16.3086C107.631 16.3086 106.908 16.5723 106.088 17.0996C105.268 17.6074 104.35 18.3594 103.334 19.3555C102.318 20.3516 101.205 21.582 99.9941 23.0469C98.8027 24.4922 97.5039 26.1426 96.0977 27.998C95.2969 29.0723 94.5156 30.1074 93.7539 31.1035C93.4219 31.5332 93.0898 31.9727 92.7578 32.4219C92.4258 32.8711 92.0938 33.3203 91.7617 33.7695C91.4297 34.1992 91.1172 34.6094 90.8242 35C90.5312 35.4102 90.2676 35.7617 90.0332 36.0547L87.4551 35L90.8828 30.2832C91.3711 29.6191 91.8691 28.9062 92.377 28.1445C92.8848 27.3828 93.3828 26.6016 93.8711 25.8008C94.3789 24.9805 94.8574 24.1602 95.3066 23.3398C95.7559 22.5195 96.1758 21.7188 96.5664 20.9375C97.1328 19.7656 97.5234 18.7988 97.7383 18.0371C97.9531 17.2559 98.0605 16.6309 98.0605 16.1621C98.0605 15.6348 97.9629 15.293 97.7676 15.1367C97.5723 14.9609 97.2988 14.873 96.9473 14.873C96.5762 14.873 96.1465 15.0684 95.6582 15.459C95.1895 15.8301 94.7012 16.3184 94.1934 16.9238C93.6855 17.5098 93.168 18.1836 92.6406 18.9453C92.1328 19.6875 91.6445 20.4297 91.1758 21.1719C90.707 21.9141 90.2676 22.6172 89.8574 23.2812C89.4473 23.9453 89.1055 24.4824 88.832 24.8926L87.7773 24.0723C88.7734 22.5098 89.6719 21.084 90.4727 19.7949C91.293 18.4863 92.0742 17.3633 92.8164 16.4258C93.5781 15.4883 94.3105 14.7656 95.0137 14.2578C95.7363 13.7305 96.498 13.4668 97.2988 13.4668C97.7285 13.4668 98.1387 13.5547 98.5293 13.7305C98.9395 13.9062 99.291 14.1699 99.584 14.5215C99.8965 14.8535 100.141 15.2637 100.316 15.752C100.492 16.2402 100.58 16.8066 100.58 17.4512C100.58 17.959 100.521 18.4863 100.404 19.0332C101.264 18.1934 102.064 17.5 102.807 16.9531C103.549 16.4062 104.232 15.9766 104.857 15.6641C105.482 15.332 106.059 15.0977 106.586 14.9609C107.113 14.8242 107.592 14.7559 108.021 14.7559C108.393 14.7559 108.822 14.8242 109.311 14.9609C109.799 15.0977 110.258 15.3516 110.688 15.7227C111.117 16.0938 111.479 16.6113 111.771 17.2754C112.084 17.9199 112.24 18.7598 112.24 19.7949ZM131.547 28.6133C130.648 29.668 129.76 30.6445 128.881 31.543C128.002 32.4219 127.123 33.1836 126.244 33.8281C125.385 34.4531 124.525 34.9414 123.666 35.293C122.807 35.6641 121.938 35.8496 121.059 35.8496C120.316 35.8496 119.643 35.7129 119.037 35.4395C118.451 35.1855 117.943 34.8242 117.514 34.3555C117.064 33.8672 116.723 33.2812 116.488 32.5977C116.254 31.8945 116.137 31.1133 116.137 30.2539C116.137 28.9062 116.439 27.5195 117.045 26.0938C117.631 24.668 118.373 23.2812 119.271 21.9336C120.189 20.5859 121.195 19.3066 122.289 18.0957C123.402 16.8848 124.457 15.8105 125.453 14.873L126.713 15.752C126.01 16.7871 125.219 17.959 124.34 19.2676C123.48 20.5762 122.66 21.9336 121.879 23.3398C121.117 24.7266 120.473 26.123 119.945 27.5293C119.418 28.916 119.154 30.2051 119.154 31.3965C119.154 32.1973 119.301 32.8809 119.594 33.4473C119.906 34.0137 120.492 34.2969 121.352 34.2969C122.289 34.2969 123.314 33.9258 124.428 33.1836C125.561 32.4414 126.713 31.4746 127.885 30.2832C129.076 29.0918 130.258 27.7539 131.43 26.2695C132.621 24.7656 133.744 23.252 134.799 21.7285C135.854 20.2051 136.811 18.75 137.67 17.3633C138.549 15.9766 139.262 14.7949 139.809 13.8184L141.947 14.873C140.814 17.0996 139.721 19.1797 138.666 21.1133C137.631 23.0273 136.703 24.7559 135.883 26.2988C135.082 27.8223 134.438 29.1504 133.949 30.2832C133.48 31.416 133.246 32.3145 133.246 32.9785C133.246 33.252 133.305 33.4766 133.422 33.6523C133.539 33.8281 133.725 33.916 133.979 33.916C134.701 33.9355 135.492 33.623 136.352 32.9785C137.23 32.334 138.109 31.5234 138.988 30.5469C139.887 29.5703 140.756 28.5059 141.596 27.3535C142.455 26.1816 143.227 25.0879 143.91 24.0723L144.965 24.8926C144.848 25.0879 144.604 25.4883 144.232 26.0938C143.861 26.6992 143.402 27.3926 142.855 28.1738C142.309 28.9551 141.684 29.7754 140.98 30.6348C140.277 31.4941 139.535 32.2852 138.754 33.0078C137.973 33.7109 137.162 34.2969 136.322 34.7656C135.482 35.2148 134.652 35.4395 133.832 35.4395C133.324 35.4395 132.865 35.3516 132.455 35.1758C132.064 35 131.732 34.7656 131.459 34.4727C131.186 34.1797 130.971 33.8379 130.814 33.4473C130.658 33.0566 130.58 32.6465 130.58 32.2168C130.58 31.709 130.658 31.1523 130.814 30.5469C130.99 29.9414 131.234 29.2969 131.547 28.6133ZM149.857 10.8301C150.053 10.498 150.395 9.92188 150.883 9.10156C151.391 8.28125 151.977 7.37305 152.641 6.37695C153.324 5.38086 154.057 4.38477 154.838 3.38867C155.639 2.37305 156.42 1.51367 157.182 0.810547L158.5 1.60156C157.66 2.98828 156.801 4.46289 155.922 6.02539C155.043 7.56836 154.174 9.16992 153.314 10.8301H162.865L162.279 12.3535H152.523C151.645 14.1113 150.814 15.8594 150.033 17.5977C149.271 19.3359 148.598 20.9961 148.012 22.5781C147.426 24.1602 146.967 25.6445 146.635 27.0312C146.303 28.3984 146.137 29.5898 146.137 30.6055C146.137 31.875 146.43 32.793 147.016 33.3594C147.602 33.9062 148.324 34.1797 149.184 34.1797C149.945 34.1797 150.727 33.9551 151.527 33.5059C152.328 33.0371 153.109 32.4512 153.871 31.748C154.652 31.0449 155.385 30.2734 156.068 29.4336C156.771 28.5938 157.387 27.8027 157.914 27.0605C158.461 26.3184 158.91 25.6738 159.262 25.127C159.613 24.5605 159.828 24.209 159.906 24.0723L160.99 24.8926C160.307 26.0254 159.535 27.2266 158.676 28.4961C157.816 29.7656 156.859 30.9473 155.805 32.041C154.77 33.1152 153.637 34.0137 152.406 34.7363C151.176 35.4395 149.848 35.791 148.422 35.791C147.543 35.791 146.771 35.6348 146.107 35.3223C145.463 35.0098 144.916 34.5801 144.467 34.0332C144.018 33.4668 143.686 32.8027 143.471 32.041C143.236 31.2793 143.119 30.4492 143.119 29.5508C143.119 28.9648 143.217 28.1348 143.412 27.0605C143.588 25.9863 143.9 24.7168 144.35 23.252C144.799 21.7676 145.395 20.1074 146.137 18.2715C146.898 16.4355 147.855 14.4629 149.008 12.3535H144.145L144.73 10.8301H149.857Z" fill="black"/>
</svg>
